:FULLY-SPECIFIED
:FORCE-ALL-JOINTS-BE-3DOF
:DEGREES
2854
root -6.097 13.2476 -28.8205 1240.95 -66.9688 -159.242
lfemur -66.0263 45.2061 -6.06551
ltibia 77.3657 0 0
lfoot -4.67145 -6.60468 0
ltoes -28.0671 0 0
rfemur -31.2245 -19.2375 22.2402
rtibia 89.0299 0 0
rfoot -41.079 -29.1882 0
rtoes -14.0705 0 0
lowerback 15.5845 5.61551 1.02551
upperback -4.50482 7.98454 1.65034
thorax -13.9015 3.69297 -0.909304
lowerneck -2.54348 9.63616 2.20228
upperneck 9.19192 12.5442 2.07911
head 3.41377 6.33749 0.772624
lclavicle -5.16499e-14 -2.36152e-14 0
lhumerus 5.50214 12.2787 84.3613
lradius 93.57 0 0
lwrist -19.0097 0 0
lhand -39.4546 388.318 0
lfingers 7.12502 0 0
lthumb -12.4419 -662.072 0
rclavicle -5.16499e-14 -2.36152e-14 0
rhumerus -59.2541 51.1498 -111.646
rradius 113.589 0 0
rwrist -83.783 0 0
rhand 8.04629 -386.327 0
rfingers 7.12502 0 0
rthumb 33.2712 306.729 0
2855
root -6.09669 13.2469 -28.8185 1240.92 -66.9691 -159.197
lfemur -66.0478 45.1956 -6.0605
ltibia 77.3741 0 0
lfoot -4.69066 -6.60367 0
ltoes -28.1184 0 0
rfemur -31.2407 -19.2302 22.2604
rtibia 89.0338 0 0
rfoot -41.0563 -29.2203 0
rtoes -14.0917 0 0
lowerback 15.5962 5.61188 1.04615
upperback -4.50874 7.98481 1.65407
thorax -13.9109 3.69109 -0.917956
lowerneck -2.54718 9.63743 2.20284
upperneck 9.18988 12.5458 2.07978
head 3.41376 6.33836 0.772954
lclavicle -5.14284e-14 -2.34125e-14 0
lhumerus 5.50171 12.2784 84.3609
lradius 93.5702 0 0
lwrist -19.0043 0 0
lhand -39.451 388.319 0
lfingers 7.12502 0 0
lthumb -12.4385 -662.071 0
rclavicle -5.14284e-14 -2.34125e-14 0
rhumerus -59.2506 51.1589 -111.64
rradius 113.589 0 0
rwrist -83.7688 0 0
rhand 8.04105 -386.321 0
rfingers 7.12502 0 0
rthumb 33.2662 306.734 0
2856
root -6.09635 13.2462 -28.8164 1240.88 -66.9689 -159.152
lfemur -66.0691 45.1849 -6.05556
ltibia 77.3822 0 0
lfoot -4.71131 -6.60101 0
ltoes -28.1742 0 0
rfemur -31.2576 -19.2226 22.2805
rtibia 89.0376 0 0
rfoot -41.0334 -29.2516 0
rtoes -14.1118 0 0
lowerback 15.6082 5.60831 1.06671
upperback -4.51274 7.98513 1.65767
thorax -13.9205 3.68924 -0.926736
lowerneck -2.55094 9.63859 2.20337
upperneck 9.18776 12.5473 2.08039
head 3.41373 6.33916 0.773263
lclavicle -5.10915e-14 -2.31729e-14 0
lhumerus 5.50079 12.2787 84.3602
lradius 93.569 0 0
lwrist -18.999 0 0
lhand -39.4481 388.322 0
lfingers 7.12502 0 0
lthumb -12.4357 -662.067 0
rclavicle -5.10915e-14 -2.31729e-14 0
rhumerus -59.247 51.1678 -111.634
rradius 113.588 0 0
rwrist -83.7544 0 0
rhand 8.03542 -386.314 0
rfingers 7.12502 0 0
rthumb 33.2609 306.74 0
2857
root -6.09598 13.2455 -28.8143 1240.85 -66.9682 -159.109
lfemur -66.0903 45.174 -6.05071
ltibia 77.3902 0 0
lfoot -4.73351 -6.5968 0
ltoes -28.2346 0 0
rfemur -31.2754 -19.2147 22.3005
rtibia 89.0415 0 0
rfoot -41.0106 -29.282 0
rtoes -14.1307 0 0
lowerback 15.6204 5.6048 1.08719
upperback -4.51681 7.9855 1.66115
thorax -13.9303 3.6874 -0.935677
lowerneck -2.55478 9.63965 2.20388
upperneck 9.18563 12.5486 2.08093
head 3.41372 6.33988 0.773555
lclavicle -5.06338e-14 -2.28952e-14 0
lhumerus 5.49949 12.2797 84.3592
lradius 93.5664 0 0
lwrist -18.9938 0 0
lhand -39.4461 388.328 0
lfingers 7.12502 0 0
lthumb -12.4338 -662.062 0
rclavicle -5.06338e-14 -2.28952e-14 0
rhumerus -59.2432 51.1765 -111.628
rradius 113.587 0 0
rwrist -83.7398 0 0
rhand 8.02958 -386.306 0
rfingers 7.12502 0 0
rthumb 33.2553 306.746 0
2858
root -6.09561 13.2448 -28.8121 1240.82 -66.9671 -159.065
lfemur -66.1118 45.1629 -6.04597
ltibia 77.3983 0 0
lfoot -4.75741 -6.5911 0
ltoes -28.2996 0 0
rfemur -31.2941 -19.2066 22.3203
rtibia 89.0458 0 0
rfoot -40.9879 -29.3118 0
rtoes -14.1481 0 0
lowerback 15.6331 5.60133 1.10763
upperback -4.52096 7.98593 1.66448
thorax -13.9404 3.68556 -0.944812
lowerneck -2.55869 9.64059 2.20434
upperneck 9.18353 12.5498 2.08141
head 3.41374 6.34053 0.773831
lclavicle -5.00502e-14 -2.25782e-14 0
lhumerus 5.49797 12.2815 84.358
lradius 93.5621 0 0
lwrist -18.9887 0 0
lhand -39.4449 388.336 0
lfingers 7.12502 0 0
lthumb -12.4326 -662.054 0
rclavicle -5.00502e-14 -2.25782e-14 0
rhumerus -59.2394 51.1852 -111.622
rradius 113.586 0 0
rwrist -83.7249 0 0
rhand 8.02366 -386.298 0
rfingers 7.12502 0 0
rthumb 33.2496 306.753 0
2859
root -6.09525 13.244 -28.8099 1240.79 -66.9657 -159.022
lfemur -66.1338 45.1517 -6.04136
ltibia 77.407 0 0
lfoot -4.78312 -6.584 0
ltoes -28.3692 0 0
rfemur -31.3138 -19.1981 22.3401
rtibia 89.0508 0 0
rfoot -40.9657 -29.341 0
rtoes -14.1639 0 0
lowerback 15.6461 5.59792 1.12804
upperback -4.52521 7.98643 1.66766
thorax -13.9509 3.68374 -0.954174
lowerneck -2.5627 9.64139 2.20478
upperneck 9.18151 12.5508 2.08182
head 3.4138 6.34109 0.774094
lclavicle -4.93356e-14 -2.22207e-14 0
lhumerus 5.49636 12.2841 84.3565
lradius 93.556 0 0
lwrist -18.9837 0 0
lhand -39.4446 388.347 0
lfingers 7.12502 0 0
lthumb -12.4324 -662.043 0
rclavicle -4.93356e-14 -2.22207e-14 0
rhumerus -59.2356 51.1939 -111.616
rradius 113.585 0 0
rwrist -83.7097 0 0
rhand 8.01783 -386.29 0
rfingers 7.12502 0 0
rthumb 33.2441 306.761 0
2860
root -6.09491 13.2432 -28.8076 1240.76 -66.964 -158.98
lfemur -66.1567 45.1403 -6.03692
ltibia 77.4165 0 0
lfoot -4.81078 -6.57559 0
ltoes -28.4435 0 0
rfemur -31.3347 -19.1893 22.3598
rtibia 89.0566 0 0
rfoot -40.944 -29.3698 0
rtoes -14.178 0 0
lowerback 15.6597 5.59455 1.14846
upperback -4.52955 7.98698 1.67068
thorax -13.9618 3.68191 -0.963795
lowerneck -2.56679 9.64206 2.20518
upperneck 9.17964 12.5516 2.08217
head 3.41394 6.34155 0.774347
lclavicle -4.84847e-14 -2.18213e-14 0
lhumerus 5.49479 12.2877 84.3547
lradius 93.5478 0 0
lwrist -18.9789 0 0
lhand -39.4454 388.361 0
lfingers 7.12502 0 0
lthumb -12.4331 -662.029 0
rclavicle -4.84847e-14 -2.18213e-14 0
rhumerus -59.2318 51.2026 -111.61
rradius 113.583 0 0
rwrist -83.6941 0 0
rhand 8.01222 -386.28 0
rfingers 7.12502 0 0
rthumb 33.2387 306.769 0
2861
root -6.09462 13.2423 -28.8053 1240.73 -66.962 -158.938
lfemur -66.1807 45.1288 -6.03266
ltibia 77.427 0 0
lfoot -4.8405 -6.56593 0
ltoes -28.5224 0 0
rfemur -31.3567 -19.1802 22.3795
rtibia 89.0635 0 0
rfoot -40.9232 -29.3983 0
rtoes -14.1902 0 0
lowerback 15.6738 5.59123 1.16891
upperback -4.53399 7.9876 1.67352
thorax -13.9731 3.68009 -0.973709
lowerneck -2.57098 9.64259 2.20555
upperneck 9.17796 12.5523 2.08245
head 3.41416 6.34191 0.774593
lclavicle -4.74924e-14 -2.13789e-14 0
lhumerus 5.49341 12.2925 84.3527
lradius 93.5374 0 0
lwrist -18.9742 0 0
lhand -39.4471 388.378 0
lfingers 7.12502 0 0
lthumb -12.4348 -662.012 0
rclavicle -4.74924e-14 -2.13789e-14 0
rhumerus -59.2281 51.2114 -111.605
rradius 113.581 0 0
rwrist -83.6782 0 0
rhand 8.00701 -386.27 0
rfingers 7.12502 0 0
rthumb 33.2338 306.778 0
2862
root -6.09439 13.2413 -28.8029 1240.7 -66.9599 -158.895
lfemur -66.2061 45.1172 -6.02861
ltibia 77.439 0 0
lfoot -4.87242 -6.55512 0
ltoes -28.6061 0 0
rfemur -31.38 -19.1709 22.3993
rtibia 89.0718 0 0
rfoot -40.9034 -29.4265 0
rtoes -14.2003 0 0
lowerback 15.6885 5.58795 1.18941
upperback -4.53855 7.98829 1.67617
thorax -13.9849 3.67827 -0.983947
lowerneck -2.57527 9.64295 2.20589
upperneck 9.17653 12.5527 2.08268
head 3.41449 6.34216 0.774833
lclavicle -4.63534e-14 -2.08922e-14 0
lhumerus 5.49234 12.2984 84.3505
lradius 93.5245 0 0
lwrist -18.9696 0 0
lhand -39.45 388.399 0
lfingers 7.12502 0 0
lthumb -12.4375 -661.991 0
rclavicle -4.63534e-14 -2.08922e-14 0
rhumerus -59.2246 51.2203 -111.601
rradius 113.578 0 0
rwrist -83.6618 0 0
rhand 8.00233 -386.259 0
rfingers 7.12502 0 0
rthumb 33.2293 306.789 0
2863
root -6.09422 13.2402 -28.8006 1240.67 -66.9577 -158.853
lfemur -66.2331 45.1055 -6.02479
ltibia 77.4526 0 0
lfoot -4.90667 -6.54323 0
ltoes -28.6945 0 0
rfemur -31.4047 -19.1612 22.4191
rtibia 89.0817 0 0
rfoot -40.8848 -29.4547 0
rtoes -14.2081 0 0
lowerback 15.7038 5.58471 1.20999
upperback -4.54323 7.98904 1.67862
thorax -13.9971 3.67643 -0.994543
lowerneck -2.57967 9.64315 2.20619
upperneck 9.17539 12.5529 2.08285
head 3.41494 6.34229 0.77507
lclavicle -4.50626e-14 -2.03599e-14 0
lhumerus 5.49172 12.3056 84.3481
lradius 93.509 0 0
lwrist -18.965 0 0
lhand -39.454 388.423 0
lfingers 7.12502 0 0
lthumb -12.4414 -661.967 0
rclavicle -4.50626e-14 -2.03599e-14 0
rhumerus -59.2213 51.2295 -111.597
rradius 113.575 0 0
rwrist -83.6449 0 0
rhand 7.99835 -386.248 0
rfingers 7.12502 0 0
rthumb 33.2255 306.8 0
